<?xml version="1.0" standalone="no"?><!DOCTYPE svg PUBLIC "-//W3C//DTD SVG 1.1//EN" "http://www.w3.org/Graphics/SVG/1.1/DTD/svg11.dtd"><svg t="1597115241457" class="icon" viewBox="0 0 1268 1024" version="1.1" xmlns="http://www.w3.org/2000/svg" p-id="9913" xmlns:xlink="http://www.w3.org/1999/xlink" width="247.65625" height="200"><defs><style type="text/css"></style></defs><path d="M1134.268688 1024H134.356508l-11.776268-16.058547a633.777313 633.777313 0 1 1 1146.044956-374.699425 628.959749 628.959749 0 0 1-122.58024 374.699425zM174.502875 945.313121h919.619446a550.808155 550.808155 0 0 0 95.815996-311.535808 556.161004 556.161004 0 1 0-1111.786723 0 550.808155 550.808155 0 0 0 96.351281 311.535808z" fill="#C4C4C4" p-id="9914"></path><path d="M588.813382 182.532148l90.463147 0 0 137.032933-90.463147 0 0-137.032933Z" fill="#C4C4C4" p-id="9915"></path><path d="M580.248824 399.857815l108.662833 0 0 319.029796-108.662833 0 0-319.029796Z" fill="#C4C4C4" p-id="9916"></path><path d="M299.03683 339.807731l63.967105-63.967105 96.896916 96.896916-63.967105 63.967105-96.896916-96.896916Z" fill="#C4C4C4" p-id="9917"></path><path d="M205.549399 655.723994l0-90.463147 137.032932 0 0 90.463147-137.032932 0Z" fill="#C4C4C4" p-id="9918"></path><path d="M1062.005227 565.260847l0 90.463147-137.032932 0 0-90.463147 137.032932 0Z" fill="#C4C4C4" p-id="9919"></path><path d="M905.160563 275.339388l63.967104 63.967104-96.896915 96.896916-63.967105-63.967105 96.896916-96.896915Z" fill="#C4C4C4" p-id="9920"></path><path d="M634.312598 842.538421m-70.657606 0a70.657606 70.657606 0 1 0 141.315212 0 70.657606 70.657606 0 1 0-141.315212 0Z" fill="#C4C4C4" p-id="9921"></path></svg>