<?xml version="1.0" standalone="no"?><!DOCTYPE svg PUBLIC "-//W3C//DTD SVG 1.1//EN" "http://www.w3.org/Graphics/SVG/1.1/DTD/svg11.dtd"><svg t="1597114680600" class="icon" viewBox="0 0 1024 1024" version="1.1" xmlns="http://www.w3.org/2000/svg" p-id="2381" xmlns:xlink="http://www.w3.org/1999/xlink" width="200" height="200"><defs><style type="text/css"></style></defs><path d="M45.992 704.464c-0.192 96.824 78.128 175.456 174.944 175.648h604.224c90.704-6.4 164.896-74.808 178.592-164.72 16.168-106.192-56.808-205.4-162.992-221.576v-10.808c-0.16-152.112-123.44-275.376-275.536-275.552a270.192 270.192 0 0 0-68.152 8.712 237.68 237.68 0 0 0-184.88-87.936c-131.296 0.168-237.6 106.72-237.44 238.016a235.584 235.584 0 0 0 26.712 109.552 141.44 141.44 0 0 0-4.8 37.512c0.056 19.84 3.816 39.48 11.104 57.936a175.328 175.328 0 0 0-61.776 133.216zM436.744 239.28A270.152 270.152 0 0 0 314.88 368.344a157.008 157.008 0 0 0-175.6 37.52 172.84 172.84 0 0 1-4.504-39.616c0.168-98.232 79.76-177.832 178-178a176.216 176.216 0 0 1 123.968 51.032z m-216.712 581.712c-63.592-0.168-115.096-51.68-115.264-115.264a114.384 114.384 0 0 1 56.736-99.064l26.408-15.904-16.2-25.808a131.816 131.816 0 0 1-6.904-12.608 97.76 97.76 0 0 1-8.144-39.664c0.36-53.872 44.32-97.256 98.192-96.904a95.424 95.424 0 0 1 57.624 21.312l34.52 25.512 12.304-40.824a214.296 214.296 0 0 1 113.464-131.768 200.768 200.768 0 0 1 57.928-18.312 216.08 216.08 0 0 1 33.304-2.68c119.36-0.344 216.384 96.136 216.736 215.496a238.536 238.536 0 0 1-3 33.912l-6.008 33.92h39.024c71.04-0.336 130.096 54.632 134.824 125.512 4.944 74.096-51.128 138.176-125.216 143.136H220.032z" p-id="2382"></path></svg>