<?xml version="1.0" standalone="no"?><!DOCTYPE svg PUBLIC "-//W3C//DTD SVG 1.1//EN" "http://www.w3.org/Graphics/SVG/1.1/DTD/svg11.dtd"><svg t="1597404612993" class="icon" viewBox="0 0 1024 1024" version="1.1" xmlns="http://www.w3.org/2000/svg" p-id="3404" xmlns:xlink="http://www.w3.org/1999/xlink" width="200" height="200"><defs><style type="text/css"></style></defs><path d="M811.3408 251.4688A367.9232 367.9232 0 0 0 730.1376 189.44c-63.5904-39.808-141.7984-56.9088-220.3648-48.1536-8.192 0.5632-16.384 1.3312-24.576 2.3552 56.4224-38.1696 120.96-59.7504 187.4688-61.824a21.1712 21.1712 0 0 0 4.8896-41.5232c-149.9648-41.7024-316.8256 6.8352-435.328 126.464-83.968 84.5312-133.4016 193.8688-139.264 307.84-5.8368 114.8672 33.0752 220.5952 109.6704 297.8048a369.152 369.152 0 0 0 81.3056 62.0288c63.4112 39.7056 141.5936 56.832 220.3648 48.256 8.192-0.5632 16.384-1.3312 24.576-2.3552-56.4224 38.1696-120.96 59.7504-187.4688 61.824-10.368 0.2816-18.944 8.2688-20.1728 18.6368s5.2736 20.1216 15.2832 22.8864a405.248 405.248 0 0 0 108.6208 14.72c117.76 0 236.288-49.8688 326.7072-141.1584 83.968-84.5568 133.3248-193.8944 139.1616-307.8656 5.9392-114.944-32.9728-220.672-109.6704-297.9072z m67.84 295.6288c-5.2736 103.5264-50.4064 203.008-126.976 280.1152-73.6 74.2912-167.2448 118.4768-262.2976 127.2064a422.528 422.528 0 0 0 143.1808-99.1744 21.1968 21.1968 0 0 0 2.4576-25.856 20.8384 20.8384 0 0 0-24.2176-8.704 405.888 405.888 0 0 1-100.224 19.7376c-0.2816 0-0.5632 0-0.8448 0.1024-70.8608 7.7824-138.0352-6.8352-194.4576-42.2656a327.4496 327.4496 0 0 1-73.3952-55.7568C174.3104 673.792 139.7248 579.3536 144.896 476.672c5.2736-103.424 50.4064-202.9056 126.8992-280.1408C345.3696 122.368 439.04 78.1056 534.0928 69.376a421.2992 421.2992 0 0 0-137.088 92.9024l-0.384 0.384c-0.768 0.8448-1.5872 1.6128-2.432 2.4576a104.704 104.704 0 0 0-3.2 3.328 21.1968 21.1968 0 0 0-2.4576 25.856c5.1712 8.1408 15.1552 11.776 24.2176 8.704a405.888 405.888 0 0 1 100.224-19.7376c0.2816 0 0.5632 0 0.9472-0.1024 69.632-7.7824 138.6752 7.2192 194.4576 42.2656a324.608 324.608 0 0 1 73.3952 55.7568c68.096 68.7872 102.6816 163.2 97.408 265.9072z" p-id="3405"></path><path d="M385.1776 385.1264c-69.8368 69.8624-69.8368 183.6288 0 253.696A178.6112 178.6112 0 0 0 511.9488 691.2a179.1488 179.1488 0 0 0 126.8736-52.4032c69.8368-69.8624 69.8368-183.6288 0-253.6704-69.9648-69.76-183.68-69.76-253.6448 0z m223.8976 223.9488c-53.6064 53.504-140.7232 53.504-194.1504 0-53.504-53.632-53.504-140.7744 0-194.2016 53.6064-53.5296 140.7232-53.5296 194.1504 0 53.4272 53.6064 53.4272 140.7488 0 194.2016z" p-id="3406"></path></svg>