<?xml version="1.0" standalone="no"?><!DOCTYPE svg PUBLIC "-//W3C//DTD SVG 1.1//EN" "http://www.w3.org/Graphics/SVG/1.1/DTD/svg11.dtd"><svg t="1597116201609" class="icon" viewBox="0 0 1024 1024" version="1.1" xmlns="http://www.w3.org/2000/svg" p-id="2090" xmlns:xlink="http://www.w3.org/1999/xlink" width="200" height="200"><defs><style type="text/css"></style></defs><path d="M881.012 696.464h-52.64V432.928c0-156.912-114.464-286.888-264.488-311.584 0.168-1.568 0.84-3.024 0.84-4.648 0-29.12-23.52-52.696-52.696-52.696-29.12 0-52.696 23.576-52.696 52.696 0 1.624 0.784 3.024 0.952 4.648C310.316 146.04 195.852 275.96 195.852 432.928v263.536H143.1c-29.12 0-52.696 23.576-52.696 52.696 0 29.12 23.576 52.64 52.696 52.64h737.856c29.12 0 52.64-23.576 52.64-52.64 0.056-29.12-23.52-52.696-52.584-52.696zM512.028 960c58.24 0 105.448-47.208 105.448-105.392h-210.84c0 58.184 47.208 105.392 105.392 105.392z" p-id="2091"></path></svg>